<mxfile host="app.diagrams.net" modified="2021-04-13T12:08:49.729Z" agent="5.0 (Windows NT 6.1; Win64; x64) AppleWebKit/537.36 (KHTML, like Gecko) Chrome/89.0.4389.72 Safari/537.36" etag="XwDik92IKfuQDsSNHqA9" version="14.2.9" type="github">
  <diagram id="slQdtOe_oaYUVvsfBllE" name="第 1 页">
    <mxGraphModel dx="1414" dy="786" grid="0" gridSize="10" guides="1" tooltips="1" connect="1" arrows="1" fold="1" page="0" pageScale="1" pageWidth="827" pageHeight="1169" math="0" shadow="0">
      <root>
        <mxCell id="0" />
        <mxCell id="1" parent="0" />
        <mxCell id="6fN1Nboj1RMONommscgy-1" value="" style="shape=image;verticalLabelPosition=bottom;labelBackgroundColor=#ffffff;verticalAlign=top;aspect=fixed;imageAspect=0;image=data:image/png,iVBORw0KGgoAAAANSUhEUgAAAuMAAAH0CAYAAACXRiMaAAAgAElEQVR4Ae29CbgtRXmovc7hTMyTAs6goOKEIIIgigdFUBy3HJN4Y37jJQZN4jzFK0g2O9H4OxCNAyoqw96ATAICIvO0j0yCgMokXAU9Jvcmek1yExOT7z7Vvaq7ulevoceq6np5nsVaq4fqWl+9/dXbdap7D4T/iAARIAJEgAgQASJABIgAEbASgYGVo3JQIkAEiAARIAJEgAgQASJABAQZBwIiQASIABEgAkSACBABImApAsi4pcBzWCJABIgAESACRIAIEAEigIzDABEgAkSACBABIkAEiAARsBQBZNxS4DksESACRIAIEAEiQASIABFAxmGACBABIkAEiAARIAJEgAhYigAybinwHJYIEAEiQASIABEgAkSACCDjMEAEiAARIAJEgAgQASJABCxFABm3FHgOSwSIABEgAkSACBABIkAEkHEYIAJEgAgQASJABIgAESACliKAjFsKPIclAkSACBABIkAEiAARIALIOAwQASJABIgAESACRIAIEAFLEUDGLQWewxIBIkAEiAARIAJEgAgQAWQcBogAESACRIAIEAEiQASIgKUIIOOWAs9hiQARIAJEgAgQASJABIgAMg4DRIAIEAEiQASIABEgAkTAUgSQcUuB57BEgAgQASJABIgAESACRAAZhwEiQASIABEgAkSACBABImApAq3J+C//SYQXMYABGIABGIABGIABGOgDA225eqsy/sAvRHgRAxiAARiAARiAARiAAZ8ZUBcTbf2HjHPBwAUTDMAADMAADMAADMDABAaQ8QnB8fkqi7ozSgADMAADMAADMAAD7jOAjCPjXK3CAAzAAAzAAAzAAAxYYgAZtxR4rlTdv1KljWgjGIABGIABGICBthlAxpFxroRhAAZgAAZgAAZgAAYsMYCMWwp821dZlM+VPAzAAAzAAAzAAAy4zwAyjoxzJQwDMAADMAADMAADMGCJAWTcUuC5UnX/SpU2oo1gAAZgAAZgAAbaZgAZR8a5EoYBGIABGIABGIABGLDEADJuKfBtX2VRPlfyMAADMAADMAADMOA+A8g4Ms6VMAzAAAzAAAzAAAzAgCUGkHFLgedK1f0rVdqINoIBGIABGIABGGibAWQcGedKGAZgAAZgAAZgAAZgwBIDyLilwLd9lUX5XMnDAAzAAAzAAAzAgPsMIOPIOFfCMAADMAADMAADMAADlhhAxi0FnitV969UaSPaCAZgAAZgAAZgoG0GkHFknCthGIABGIABGIABGIABSwwg45YC3/ZVFuVzJQ8DMAADMAADMAAD7jOAjCPjXAnDAAzAAAzAAAzAAAxYYgAZtxR4rlTdv1KljWgjGIABGIABGICBthlAxpFxroRhAAZgAAZgAAZgAAYsMYCMWwp821dZlM+VPAzAAAzAAAzAAAy4zwAyjoxzJQwDMAADMAADMAADMGCJAWTcUuC5UnX/SpU2oo1gAAZgAAZgAAbaZgAZR8a5EoYBGIABGIABGIABGLDEADJuKfBtX2VRPlfyMAADMAADMAADMOA+A8g4Ms6VMAzAAAzAAAzAAAzAgCUGkHFLgedK1f0rVdqINoIBGIABGIABGGibAWQcGedKGAZgAAZgAAZgAAZgwBIDyLilwLd9lUX5XMnDAAzAAAzAAAzAgPsMIOPIOFfCMAADMAADMAADMAADlhhAxi0FnitV969UaSPaCAZgAAZgAAZgoG0GkHFknCthGIABGIABGIABGIABSwwg45YC3/ZVFuVzJQ8DMAADMAADMAAD7jOAjCPjXAnDAAzAAAzAAAzAAAxYYgAZtxR4rlTdv1KljWgjGIABGIABGICBthlAxpFxroRhAAZgAAZgAAZgAAYsMYCMWwp821dZlM+VPAzAAAzAAAzAAAy4zwAy3lMZv/qHDwsvt2PgYoKEGbeZ0e3jIju6TrqOvLvNkm6vvr3f+sCv6Ps86P/7xl3d34OM91TGT7n+RuHldgzqnrxt7K8ECm7c5ka1URtt31SZMOQ2P+r8dp2hOiwqGSeHuc3ghd+72+kcVoe/qvsi48g4icvShUvVk7bN/RAptzsxH0QKhmCozRw1rWxk3H3+kPHRaTPIODKOjFuS8etuflDUa1rn0uV6RMqDjmzjXRE3rrGjOYUhGNIs2HhHxt3n76zl25zOYTa4RcaRcWTckoyfft7Vol42Tvxxx0Sk3O/ITrv0hogbZNz9tnJ1uoTrDI3LT7MsR8bdPy9OvXI5ymGXXHWHU/3fLHy1tQ0yjowj48h4khCRcfc7MtdFCoZgqC1hmaVcZNx9/pBxpqkk0jHLSe3zNq6OyFCvNFEyMp7GAi5mjwUyPnus4Ko4Vq4zVKfvRcaL29ylcwEZR8aRcUujwC4lAlfqgoy732m4wopZD9dFipFx97l2nSFk3H2GzJxU9jMyjowj48i4M9NykPF+dzhlO6hZt3ddpJBx97l2nSFk3H2GZs1XRdsh48g4Mo6MI+MT7pNApNzvBF0XKRiCoToyXXdfpqm4zx8yjowj48g4Mo6MO8NA0ajRtGXIuPuyMa0Nba93naE6Qo6Mu39+IOPIODKOjDsjYkxTcb/TsC1NRcd3XaQYGXefa9cZQsbdZ6goN826DBlHxpFxZBwZZ2TcGQZm7bzM7VwXKWTcfZFynSFk3H2GzJxU9jMyjowj48i4MyLGyHi/O5yyHdSs27suUsi4+1y7zhAy7j5Ds+arou2QcWQcGUfGkXFGxp1hoKijmrbMdZFCxt0XKdcZQsbdZ2hanpq0HhlHxpFxZNwZEWNkvN8dzqTOqM4610UKGXefa9cZQsbdZ6hODkPGkXFkHBlHxhkZd4aBKh2a6yKFjLsvUq4zhIy7z1CV3KX3QcaRcWQcGXdGxBgZ73eHozuept9dFylk3H2uXWcIGXefoTp5DRlHxpFxZBwZZ2TcGQaqdGiuixQy7r5Iuc4QMu4+Q1Vyl94HGUfGkXFk3BkRY2S83x2O7niafnddpJBx97l2nSFk3H2G6uQ1ZBwZR8Y9lPFjjzpajk3qfbG8df1ABgPzZa7XSewrcuRgIEeeqL+7946Mu9cmdTqYrvZ1XaTckHGVJ4ryQhFzatv18tZzi9bFyz573Po056yfl8+eOy/7ZnJQnI/2Pe7izMV+tN9RX8ks64qTScdxnSFkfDyLk9rVl3XIODKOjCdS29bJriQ437HlBdrsJPPrDMlWnZ6qr+r49Ofr8x2nOp5Z3nD7go4yFfh8/dqKxeRy+ynjuj1HY6yFJiss8UVT2jZGW44RHrXtvsctFlyUDdlJWEnjr4+dHmcgg0qSFP8+mxd5rotU5zI+gZNMe0c5YZTLU67/ihxZwIwpNoqfuM2H26pj5vk58WjJsD2tXvn9W8/N6fngOkN9lPEoB+U403lpWj459qg0t737KJX/shd9Jqs+fEbGkXFkvPWEn5fxWLYyyePEo2UwIuxaoos6yxvls8cdHY9cqX0zCS0r4zq5DY6aj2XN7PCGnWOmLq3HI+0A80myzzK+7/r1uQ4jvojad73RkRS0R9x+owwUdWRJPKNyRvdJ1l+v+FlfwE2VfzlBxqeJUucyXngOq3YyLuxy2yR5YuJFe8qq2n6ajKttktwyZPLIo4xlug4z8Gqy28ZnZHx8Xm4j3qrMfA6KGRzPaFqPOHfqf7lRYp5wppny7B0ZR8aR8dZP2qyMRwnHFOLh8QuXT+ukIonPJ69YjqIRsIykD5NttE86qhCNtLceg9kSfZ9l/MjjzH/NSP91461GRxKN9hSwUbQ835GlHdXkizi9XdH+ZqcWfV4fT0XQHV1Uj6Gs6WWnRP8yY0h85sLSYNGcIhVdQK6PpzUUMVqSR9dFyoaMR+07Razjf1GJRxTV9mmbFp+v5jaZ8lUbqlwVsRsPNsQj8Do3FQwQDNs9YqoBBjTXVd9dZ2jaBd+k9bc+8CvnpgWpdooY0m0/rS9TLEfbjuYUM29F/2qc5JrsttlBq2LGq/JTdz9kHBlHxkt2/OVPOlPG4+RQ+E9wRcmoQMYTISqQttG65ZKRSmjmflH5BdNgWo9JcSLstYyfaHIQd0RKftKOpBwbmY4s314F3OTZGN0/W7+8JMXyNZSrITcxx0a9I8keTqW6/sbotyW8RXwPR+vNz/m6V/juukjZkvFYrlX7aClW550hxsY0EtW+8fZqvZETos/x/uk2Mb/TRsbzzOnvSQ7Tx9FCVqHtdZl1311naJJsT1vnvIyPyQcRJ0l/FXM5knOGeSZiN8pLKevj9y/uf+oyVGd/ZBwZR8Zb7wBMyTHEJX/cXCKJTuxxUqWWR0kqLm90Hmjun+2icvIdrPl98pSGOkmmzL79lvFYTlNBimOuOgxTggov1ArYGJVpo4MZx43BXCzXJgO6HnE52Y7MrHt+/ZBpNfKfuVfB7DzVPgb7UeebdpplGCna1nWRsivj6b/CfDZ/f8lYGTfbRrXjjDKu5dp8V3kqau+UtRHGM/nJTi5ynaFpwj1pvdMynrAyrd2N/GHmkkTG5wvuzTJyYm6fojxicxkyjowj44agtHMytinjw442GT3ISY/+baqzM7YxR7jUbz72qGmJ0Exq7X3uu4xHUqLawZDrVMbNziYX4wJ5bUTGcyOSpoCn9UqZii8a4rpFx4+Yiuut/glYTblJRSuW8fyFYlSG+j25Y9c591wXKZsyHrVpIjypEEfxrynjSduqtoxyjLovJRX5fJ5J21gxk26XLs9xr/NXB++uMzRJtqetc1vG474nyieZi3k93c5gNjf9ROeamPGj5a3Jv+4MOcpc5MXl6H1cYM6sAzKOjCPjrSd6U8aH8+QMMdYnZCo3RocUJZMCUY46vnjESSUXs9PLStT4pJR0pFFHXXCM1uNi/M7hsXov48MpAqrT0NM3zPaKOhWDjWOPi6d85JcrZiJexgntOG6MNi3c35Bks17qeEXf499gXEREx9WSleVecx69G8fJLDfqV2a56yJlU8bTOBYI8FgZzwrQYNaR8aO+YuQi1f6ahRtHRsez+Wd4PIP9tN6jeaKNda4zNE24J613WsaNHJbNc3FeSQcAjDyTG+VOc5OZcybt3w1TZThFxpFxZLyiAMx+opkJQiUB9T07JSD+Z9wCIR4nVdHy7PzvSK7y5erfprY3OjpT3tXvYGR8NBHozq2+SI12IkpE9AhN2pGkI0FxB3Rx9MScWFoMqRm2aaFMm+1d9HQevX6MzJudYaZeenstV0P+4t9g/r6stJvlZW6sQsZbv6EuOsePOrrw2d8xU+vlrceljx5Mc0JOonPMaDlSbRu3f/7RhjEPJuMjuVK1v5GPovXGhcHI9kYd2lqHjHcvqKM5zOwbczKtmEny5vicE5UZsTVp/+5/6zRukfHRPviX/ySt/Tdoq2RVaS0PvBfHYtrJ0N76vIyrRJB2WONkK6rPOBk3O65hkooejXhcnLBGOjot70X/XM3I+MRzp1kZH45oa6ktGHHWF2sxF+qCa/hIypxcj3ZkRgczjhtDaqL98zzkRqm0eOlzI5Lr4T7pumzHGNdfX1hmOU/2Qca7kfHMs5dVW+Qu6ow8onhI2sfgRLe9ek+3MYU9L+OxUEX85oV7yHvRFKW0bIPjMfUw69TUZ2S8+7hHOcjIOVFbDvuziMWkb4sHntIBgmzOSZenfWt0oTh2/+5/6zROkfFRb0PGfzEalD4I/rSTwb/1WnRyHazqwHQS0p2hkjP9uaCDY2R8PPP1Zdy9xO8f65Nj6LpI2WBoVG61jOu8kZ1DO7p9GnPzIiySHJ1PzDyTXPDrCzF94alG0NNjxqPpcdlmuXoqjC02XWeoTh/s6jQVW23t4nGR8dE+GBlHxlsftXIxGbhQp37OGU+lxoUY97EOrouUDRnvYzu3+ZtcZwgZ73ceRcaR8Yn/RF8nAbi2b5uJnLKbSZTIeDNxDI1H10UKGXefa9cZqtOfMjLuPn/IODKOjBdM2whNZlz5vci4+52GK6yY9XBdpJBx97l2nSFk3H2GzJxU9jMyjowj48i4M9NykPF+dzhlO6hZt3ddpJBx97l2nSFk3H2GZs1XRdsh48g4Mo6MI+MT7pNApNzvBF0XKRiCoToyXXdfpqm4zx8yjowj48g4Mo6MO8NA0ajRtGXIuPuyMa0Nba93naE6Qo6Mu39+IOPIODKOjDsjYkxTcb/TsC1NRcd3XaQYGXefa9cZQsbdZ6goN826DBlHxpFxZBwZZ2TcGQZm7bzM7VwXKWTcfZFynSFk3H2GzJxU9jMyjowj48i4MyLGyHi/O5yyHdSs27suUsi4+1y7zhAy7j5Ds+arou2QcWQcGUfGkXFGxp1hoKijmrbMdZFCxt0XKdcZQsbdZ2hanpq0HhlHxpFxZNwZEWNkvN8dzqTOqM4610UKGXefa9cZQsbdZ6hODkPGkXFkHBlHxhkZd4aBKh2a6yKFjLsvUq4zhIy7z1CV3KX3QcaRcWQcGXdGxBgZ73eHozuept9dFylk3H2uXWcIGXefoTp5DRlHxpFxZBwZZ2TcGQaqdGiuixQy7r5Iuc4QMu4+Q1Vyl94HGUfGkXFk3BkRY2S83x2O7niafnddpJBx97l2nSFk3H2G6uQ1ZBwZR8aRcWSckXFnGKjSobkuUsi4+yLlOkPIuPsMVcldeh9kHBlHxpFxZ0SMkfF+dzi642n63XWRQsbd59p1hpBx9xmqk9eQcWQcGUfGkXFGxp1hoEqH5rpIIePui5TrDCHj7jNUJXfpfZBxZBwZR8adETFGxvvd4eiOp+l310UKGXefa9cZQsbdZ6hOXkPGkfFgZFx1iOqlkm4fXnNv/O+9+B1mW7gq44qbCzfe1Yt4z/3+m+Wk86/oxW/Js3PdzQ86mc907ukNQz3MPYollX9cZaiujCsGv/29+3px3n/ya2fKWz9wbC9+Sz6HXXLVHU7msDr8Vd33l/8krf03aKtkVemqPzi0/bTw+f4+GAyizsP331FUfxeZVJ10UV19W7Zq1So59azLe/Fb8rF3XaT6wpDKPUvnXgVDE6a3uZjDbrv7H3rRZh889uOy19779eK35HMYMp66LDLuWYIpm/Ty8Pv6HRlPT9qyDFTZvi8itWLFCkTKUo7rC0MDGPJy8AsZv9p5gUfG034dGbfUUVURpCr7qA6xD683v+WdvfgdRW1RpV3b3qeonr4tu/q798sf/tE7esuNao+2OahTvm+8jKuvyj3X3vTj3nJUp41d3lfJ+Lg29Wn5GedeLcfMf7oXv6Uo7i4z1GXdkPGey3iXMHGs9CqXWBALGIABGIABGICBWRhAxpFxp0fXZoGYbUh2MAADMAADMAADvjKAjCPjXsj4O957nBf19DUR9LHet939jwI3dM512VYM3fez35J/6CutMHDVxvvkU5871cqx65477D97/kXGSTBenOTqBk5O7NlPbGIlcvNdfyc7PmInuCHH1WJAPZHnvp/9R60yOB/JXVUZ+Prpl8gL1x8Ofz3PY8h4zxu4agJwbT9knM6sLJMbb39Ydt7lMXRi5LhaDKxatVrufRgZL3v+sX0zORsZbyaOrvOIjNNR1eqougKc6QZhJKQmebr25gflHe/9iBd8N/m7KavZc0UxdO/D/w5H9JVWGGCaSrPns6v5ERknwVhJMK6eENQrjMRHO9POMAADMAADrjCAjCPjyDgMwAAMwAAMwAAMwIAlBpBxS4F35WrMl3owTYURjLKsqr/uBjdwU5ab/PaKoXt++hskhb7SCgNMUwkjhyHjJBgrCSbf4U37zg2cYSSkaRyUWX/Bd26VZzxrHy/4LvO72Lbbc2HN2rVy90//DY7oK60wwA2c3Z7vtvIrMk6CsZJgygKPjIeRkMpyMWn7cy/+rjx7n/294HvS72CdXfbXrl0nd/8EGYdDOxwi43bi3jXvyDgy7oWsMN0gjITUZAL8xgXX8zQV8lvt/KaepvKjn/xr7XKaZJuywsmHTFMJo62RcTorOhkYgAEYgAEYgAEYgAFLDCDjlgLPyEYYV7u0M+0MAzAAAzAAAzAwiQFkHBn34kqYaSokskmJrGjdVxcv5mkq5Lfa+U3lnh88+C+1yylilGXktWkMME0lDEaQcTorLzoZbuAMIyFN65jKrP/SyefLSw57lRd8l/ldbNvtubD55lvIDx74Zziir7TCADdwdnu+28qvyDgJxkqCKQs8Mh5GQirLxaTtP3/S2XL4Ea/zgu9Jv4N1dtnffIst5S5knPPIkisg43bP/67yLzJu6QTrqoH7chymqYSRkJrk9TMnniFvf89HkAhyXC0G1NNU7vrxP9Uqo0muKSusXMg0lTDaGxmno6KTgQEYgAEYgAEYgAEYsMQAMm4p8IxuhHG1SzvTzjAAAzAAAzAAA5MYQMaRcS+uhJmmQiKblMiK1v3VJ74k73zfcV7wXVR/lrnBvMo9d97/aziir7TCANNU3MgDbedjZJwEYyXBlAWbGzjDSEhluZi0/fzHPie//6a3ecH3pN/BOrvsb7XV1nLH/f8HjugrrTDADZx2z/+u8i8yToKxkmDKAo6Mh5GQynIxaftjjz9B3vRH7/CC70m/g3V22d9qq23kjvuQcTi0wyEybifuXfOOjCPjXsgK01TCSEhNJsAPfeQTPE2F/FY7v6mnqXz/vl/VLqdJtikrnHzINJUw2hoZp7Oik4EBGIABGIABGIABGLDEADJuKfCMbIRxtUs7084wAAMwAAMwAAOTGEDGkXEvroSZpkIim5TIita9/T3Hyjvf9xde8F1Uf5a5wbzKPbff80s4oq+0wgDTVNzIA23nY2ScBGMlwZQFmxs4w0hIZbmYtP3b3v7n8t4P/ZUXfE/6Hayzy/62220vt93zj3BEX2mFAW7gtHv+d5V/kXESjJUEUxZwZDyMhFSWi0nb/9Hb3id/fuzHveB70u9gnV32t91uB7ntbmQcDu1wiIzbiXvXvCPjyLgXssI0lTASUpMJ8N0fOF4+PP9pL/hu8ndTVrPninqaym13/wMc0VdaYYBpKs2ez67mR2ScBGMlwbh6QlCvMBIf7Uw7wwAMwAAMuMIAMo6MI+MwAAMwAAMwAAMwAAOWGEDGLQXelasxX+rBNBVGMMqy+qfv+rD89adPonMhx9ViQOWeW3/4v2uVUZZdtiffaQaYphIGC8g4HZUXnQw3cIaRkHQH1MT7aze8UT752VO84LuJ30sZ7ZwjO+zwCLn1h/8LjugrrTDADZztnNeu5UtknARjJcGUPRGQ8TASUlkuJm3/ytf+nvzNF5a84HvS72CdXfZ32PGRcssP/h6O6CutMICM2z3/u8q/yDgJxkqCKQt4E9NUpOX/lucHMre0qeWjFBe/PD8niw+Z65ZlYcOi2KmNWY/mP8/Kjnqayue+fJYXfM/6m9iu+45ZPU3l5rv+Do7oK60wwDSV7s95G3kWGSfBWEkwNmAvpYUbFzJirURbjc4nr4zobpLFDcY6czv1OdlWbbcgy1FFxsjyxgUZDJRYTylTHyMpe1hetP+4uuhjm/XQUVHL8kKv17n1boMdjhlGh0g7084wAAM2GEDGkfFwZVyJayKzo8K5aWluKOR5UTVE+qFFmRsK96IS9vlYtaPSErHWZcflzEVCnsrz3PxCXIYqx9x/uJuqx8JGXYaI5C4U9Jp0uyLZ1lup93S92ie5wNCCH71rcTf2KxL9gvoae4x8jI43IeYjOxQssJEoOSYdNAzAAAzAQFsMIOPIuBcy3vQ0lURCp4rhsiwM8tNP4mVKYjOSrMTRFNYRUR1KsNpmfkEWNszJnDq+EvqRbVMLTSV7uGyMjCd7GOWNTF/RFw9D8Vb1z5c/so8uOPptpqSrOJQbTe9Sxv/0XcfIyWdc6gXfbSV4yq0vDyr33HTnL+CIvtIKA0xTqX8O+5AHkXESjJUEU/bkUOJbdp/89top9chyXgzV92jOdyLUpngme2c/JNsOp4aYUp1bt7AxHZEWUSI7LN+Q52zh8be8LOv6J9tqwR5eWJjbF4u1WQ9VSvrd3DcpX3+YJONq3QZ1gZGO7quy9Ki7nksfLRvWM576Y8QgGZnXcVf1GsjCvJ66E1ck367jvh/w/PWyePYVtbkZVz7Lw+gkH/HIneXGOzfBEX2lFQa4gTOMPIOMk2CsJJiyItOojA/l0hRD7Zvpe1ZQtVSm7+aIcCyN6brcnO1k9F1tp0bDs+sXloZTXRIZHcjc/AcTkR1brjG6Hcl9dJxJdclK7mzlphHJjPpnjq3/RcCISUbc439J0KPwamrQshL15MIlO8IetUu0bvhbku3iuszKznP3f4Gcef61XvA9629iu+475kfutIvceAcyDnvds6dijozbiXvXvCPjyLgXstL0NBWldbPKeCq6WkyNUe1okZJGLbr5Od3G/PJkBDqWUyXD0YhxMjKeK2d4OFXPzHSYwmkq5nF0PUVGRsaT0XqjvsNY6NHrdO/cp4xgq3WpZMeinpaZCnVchn7STLQ8Evl0W9Ej+8bFyCD6V4NYxvP1mjVJqqepnHPRRi/4nvU3sV33HbN6msqNd/wcjugrrTDANJXuz3kbeRYZJ8FYSTA2YM+pZQkZj8U9lsJYEDNyHEl2drQ7M+qcGRlX2ykRjeVZjRBHN3AmI8GGpA4rXCTUeUFNLhgS2S6uT1xvLf3pRUGmvvlRbx24ERlXsj+8oMitmyjj+ZHxSMZHf3c8fSY/Xz+MxGzj/OCYsAUDMAADdhhAxpFxZFzLZuY9FtaF+fQmTT2qmxVxtZOW22EBmZFrc8Ta3C5drspNRT8vpflR+PzIu650Wp5eot5HRD5aadZDfTamlwwvEgqfT54T7kkj49mR8nQEPYqhMZ0mjmW8Xl9g5LfRy/XvorOw01kQd+IOAzAAA+0wgIwj417IeBfTVFIpFtFTJyJZTKZRLMji8KbErJAroS0eiY5GnEdGxo1t5xcNGTYlOVLp6Eku2WMVy7h+DnpeXKfK+EPLspx5phebEJ8AACAASURBVHn+YkArsJ4XbtRdjaDr+dwjoj6cBjQcZdf1SkVblzc8XhJjVb6uQxxXva+uyaydwZ+96xi59JofeMH3rL+J7drpCCfFVeWejbf/DI7oK60wwDSV7s/5SfmgrXXIOAnGSoIpC7SS2rL75LfXMlfmPZZcc+Q43ju7PC/R5hGKR6yTLZTEaqHNjLCr0eLR40b7ZUbe4wuHheFf/tRSXjTtJPpjQjelz0WPHqmo52knFwzxKHX8h4eSWjr1Id+u477v9sQ95Irle2pzM658lofRSe68y6Nl4+0PwxF9pRUGuIEzjDyDjJNgrCSYSSLzlsFAZn1NKie/zimjpDKVI5Bv13HfH/f43eSamx5wju9x9WW5m53uLo96jCzfhozDpx0+kXE7ce+ad2QcGXdOVpSI37J+j6kvtV2ZE6ay/bGjUxEw2/zNb3mnbLXV1vLRT355hIV3fWBebvjeQyPLzf35HEZHV6ed1dNUlm+DozoxZN/q5xnTVKrHzifukHFk3DlZaUvGfToxqetsCfiK5Xtl1apVsnbd5qKmE3zs0yc5xzNtOVtbEifiBAMwECoDyDgy7py8IOMk5DIJ+cjfeZOsWbs2+iNJapT8sY/fTT5+wled47rMb2JbzgEYgAEYCIcBZBwZd05aysi4ulFxxYoVsnLlSlm5cjPZbLPNZLNVq2TVqtWyevVqWb1mjaxZs1bWrl0na9etk3XrNpd1m28hm2+xhWyxxZayxZZbyZZbbh1Nddhq621k6623lW222U622XY72Xbb7WXb7XaQ7bbfQbbffkfZfodHyA47PlJ2VK9H7CTqz2Srl/oLfTvt/CjZaedHR6Ozao7pLo96rDzq0Y+TRz3mcfLoxzxeHvPYJ8hjHvcEeezjdhU1l/lxT3iiPF69dn2SPGHX3WXX3XaXXZ+4h+z2xCfLE5/0FHni7k+RJ+3+VHnSHnvK7k/eU/Z48tNkj6c8XZ781GfIU9Rrz2fKU5/2LNnzaXvJnk/fS572jGfL056xtzz9mXvLM561jzzjWc+RZ+61rzzr2er1XNlr7/1kr332k2fvs7/s/Zznyd77HiD77HuAPOe5B8pz9nu+7LvfQbLv/geJ+quV+z3vhbLfAS+U/Q84WJ534Ivkec9fL+pPyx9w0CFy4AteLM9Xrxe+RA46+FB5wcEvlRe86KXywvWHyQvXHy4HH3K4vOjFL5MXvfjlsv4lR8ghh6rXK+TFL32lvPiwV8lLDnuVHHr4q+XQw18jL33Za+Swl79WDnv5nBx+xOvk8Fe8Tl72iiPl5a/cIC9/1QY54lWvl1e8+nfkFa/5XXmler329+RVc2+QV6vX6/6bvObI35fXHvlGedajHysrV6zI/MXSLVavkTWrVslHDn+l/O2Rb0hedG7hdG5NtbV6msoNt/7UuTzZ1O+jHLfPCaapuN0+TZ0/yDgy7lwnU0bGf7zpv+T+n/+n3P/z38p9P/ut3Pfwf8i9D/+73PPQv8s9P/2N3P3Tf5Mf/eRfo9cP/+f/lR8++C/ygwf/Re564J/lrh//k9z541/LHff/Wu647//I9+/7lXz/3l/J7ff8Um675x/ltrv/Qb73o3+QW3/0v+XWH/4vueUH6vX3cvNdfyc33fULuenOX0R/Jlv9db7vfv/n0ePP1FMX1PxSNVf5hu/9VK6/9Sdy/S0/ketu+Z9y7c0PyrU3PRDdVHj1jT+Wq797v1ylXhvvkyuX742e/HHFDffI5TfcLZdd/yO57LofyXeu+6F859ofyKXX3CXfVq+r75RLrrpDLlavK78vF11xu1x0xW3yrctvkwsv+55ceNmtcsF3bpXzL71Fzr/0Zvnmt2+KXuddcqOce/F3o5f6q5Rnf2tZzv7WDXLWhTfIWRdcL9+44Do58/zr5MxvXitnfPMaOeO8q+X0c6+WpXOvkqVzrpTFs6+U086+Qk4763I59RuXRa9TzvyOnHzmpXLyGZfK10//tnzt9Evka0sXy1cX1esiOem0b8lXTlWvC+XLp1wgXzr5/Oh14te/KSd+7Tz54tfOky989Vz5wknnyOdPOls+9xX1Okv+9svfkL/90jfks186Uz5z4hnymS+eLn/zxdPlhC8syQmfX5RPq9fnTpNP/e2p8sm/PUX2GgxkdU7GV61YIU/ZfI18dLcd5bSn7hy9FFdNJU7KCaODVO2sLqbVeUybh9PmLrU1N3CGwR0yjow718mUkXGXkiZ1sZM0Hzl8POOalSsiKX/JTlvJmfs9YeQGYGTcTvv4fl6of9VCxmHHFsfIeBjsIePIODIOA84xMGvH9/mvniObDQaiRPzlu2wj3yiQcP1kHmQ8jE5tVnZm3U49TUX9y9as27MdnDXJANNUwuAJGUfEnOtkGBkPI/k00WF96eQLZJfBQM7ef3QkXEu4fkfG4aoJ5igDjmAABppmABlHxpFxGHCOgTKJjos3OsYyvLAtvMAADLjGADKOiDknYsgVibJMooQXeCnDS9lt1dNU1M3XZfdje7hsggGmqYTBETKOjDvXySBXYSSfJjoqVQa8wEtTLBWVox5Fes1NDziXJ4vqyrL+nQvcwNm/Ni06T5FxZNy5Tga5CiP5FCWkKsvgBV6qcDPrPupvAlxz44+dy5Oz1p/t/D4/kHG/22/W8w8ZR8ad62SQqzCSz6xJatp28AIv0xips149TeXqG+93Lk/W+U3s6885wzQVf9qqznmFjCPjznUyyFUYyadO4jL3hRd4MXngMzzAAAz4xgAyjowj4zDgHANlEikyTsdbhhe2hRcYgAHXGEDGETHnRAy5IlGWSZTwAi9leCm7rXqaipoqUHY/tofLJhhgmkoYHCHjyLhznQxyFUbyaaKjUmXAC7w0xVJRObvutrtcufFe5/JkUV1Z1r9zgRs4+9emRecpMo6MO9fJIFdhJJ+ihFRlmS+8CP9VjkAVLpraZ9fd9pArl5HxpuJJOeXyOzJeLl6+8oWMI+PIOAw4x0CZhBqmjG+SxflF2ZTo7bIsDAYyMF8bzPXDDR9alLnBnCw+lOxY/CHaLleeWfbw88LGePdNS3Nifp5bSmuWHGBYplqnts/UtaDseH1c1zI8NL2teprKFcv3eH2ONB0TyutOEJmm0l2sbXKNjCNiznUyvsiVzROXY6cJelZeVgwGsnr1atlyq61l510eLU/Z85nywvWHyRv+4Gg55vgT5PTzrpZ7fvqb1s6HSEo3LmQkVAtsIqxlPqiy5peHeygZXxD9TZT45mU8d+xRGTb2n6Eey/ODjIAvzMf1UaKthDtav6Tkfyj1+fpEx9gkixtyx1V1T35XXBF4T3knFsQCBvrHADKOjLcmH1UTxqxypbaregz2608yK8PLjzf9l/zwwf8rN935C/n21XfK10//tsx/7HPyxj98mzx7n/1l1erVsv4lR8hHP/nlaLsmORHJCXMkxzkRnUGCzU2W5+P9o5FmU2BzMq7EWMn33NJiNIKeGbkeSnr2wkBJ8uQR9BEZ36j2Gcjchrn4pUbHC8TarL8IMt4kY5TVn7xGW4bVlsg4Mu6c0JaRKxJWWAmrqL2b5OWuB/5ZPvulM+Vlr3idbLXV1vK2d3xI7rj/142cI1kJVd/iqSVZCR7datqSSMRHRp2NaSumpA8Ly0wTKVgfS3JZGY8Lz1wY9EDG1TSVy6+/uxEGivhlGTlsEgNMUwmDD2QcGXeuk2lSriYlOdb1I8m1xcvV371f/tv/d7Q8cqdd5NOfO632eTIi1UpUM/O3hyPLRfOtMzvH28Uj3QVzszPbqi+GmA+njBSNjCfTViI5T4+RLNfTTYx3fSGhBDyapmKsG6jfttGYpqLXzX9pdH67Xlf0Pr9cO/Z1zvUn7f5Uuez6H1mtQ536s6/feY4bOP1uv1nPP2QcGXeuk2lLrmY9KdjOr+TXNi9L51wpT9rjqdEoeR02so5cJN5Fy7J7Zb5tXIjmZhfJthZoLcvRfqXmjKu6VBkZj8U/kX1jZHx5vqg8dZzcVB1jH/1768S97r5P2mNPuew6ZLxuHNm/Wl5FxqvFzTfekHFkHBmHAecYKJNI25ZxVZfb7vlHOeD56+WP//T9lWOlxTKeAjIwbr5M15T6lMi4iJifo0KUFOfkN7eNOed7dO72dBk36xqNjG8civiG+EkpkZAbYl0s42oft2Vc/dGfy677YeV2L8My24YhXmXamWkqYTCBjCNiznUyXchVmWTItm4nw654ufP+X8ueT99LPvapr1Q6Z2J5zY0cm0Zb9vNQrjctLUSPKkzlOh5hz4yKq7IbHhmPqpvUIZ6mogRcibl6j+ozr0fvRQplXMl6fr67IfA6JJyDbp+DtA/tAwP1GEDGkfFKYtHmideVXLX5Gyi7XmIqE78ueTn34u/KVltvIzff9Xelzxs9Ip5M4dCmmbzHEj1+fbJh/GEo1+b2SoDVFJUREVd7tDAyrsU7HhmPq6WXqW/pBUKxjKv1Zv2jEpDx0myVOV/YtrvcRKyJ9awMIOPIuHOJv0u5mvVEYTt3k2rXvLz5Le+UP3rre0ufN9Fj/gpuUEzFuZyM5wU4nie+IIvDP6gzIrmlRsaL5TnWbf3/dCqLqouep67fF6JnjKdTUPIj49GFQ9GTXByTcfU0lUuv/UHp9iZnuJszfGobpqmEwREyjow718l0LVc+JWbqOpqYu+blmpsekK233lbu//lvS507WmGbfY+nvQzyUz1Ekr9ymUh5bmQ8Ww8l1qk4R+umyvvkee/mqLgqz5TxsSKuNnRMxvd4ytPl0mvuKtXWnKej5ykxqRYTbuCsFjffeEPGkXHnOpmu5cq3k5b6ZpOzDV5e8KKXyhe+em6pcycrv3wrEwGbzD/5qc+QbyPjpVi32V59OzYyns33fWtf/XuQcWTcuSRrQ670CcG7f4nPBi8fPPbj8qaj3l7q3Ckjn2ybjYDN81I9TUX9tVabdeDY/uWlptqMaSphtD0yjow718nYkKumEifldJ84bfCyeM6Vst8BLyx17mT1km9lIsB51f15RcyJOQx0xwAyjoyXEoouTk4bctXF7+IY7SQ2G7zc8L2H5FGPflypc6eMfDaxbX7OdlTmxHnj2XndSR3UHO78s8CTld184Nxp59whrsQVBtxgABlHxksJRRcnrg256uJ3cYx2kp4NXu756W9k7dp1pc6dbrTVPMroH9QpFHRjl+Qmy0jA48ck6qejpO+5Gz2N/dv6aPPcUU9TufjK75dqa5v15djt5BlbcWWaSr/acxxHyDgy7lwnY0Ouxp0gLHc/EdriRclpGT7aEtWJ5UYj4YuyUPBIxYxc5+U7euTgsixkntIyKvcTj93gyjJxbnrbpz7tWcg4/WSpc71JBrmB0/0+qIn2RsZJMtaSzDiAbcnVuPqw3O1kaIuXlStXljp3GnTTSkWZf4xnXAHJyLjeIJnWkj5TXK/q8t3mObjn0/aSi664vVRb26wvx3Y7X5VtH2S8X+05rv2RcWTcuU7GllyNO0lY7nYytMHLj37yr7LFlluVOne6lNf0DwwNp5Soke9klDs/4p3WTMt49BzwCaPp6R8qSvdt85PNc1A9TQUZdzsH2OSj7WMzTSUM9pBxZLyUULSdeFT5NuSqi9/FMdpJqjZ4Wb7tYXn0Yx5f6txpU1aLy07/kE/RX8hMpqkkkq5u4FTzxOdk8SFdopqaYn7Xy7t959xp59whrsQVBtxgABlHxksJRRcnrg256uJ3cYx2kp4NXs7+1rLss+8Bpc6dbvVVHS2V8eyxC0bGk7+2qcRb7Tfu5s28rGdLbusb50475w5xJa4w4AYDyDgyXkooujhxbchVF7+LY7ST9Gzw8tcnfFXmXv8Hpc6dtkR1fLlaxtXo9mxyraepRGUqQY9u5BweQU11Mb+PP3Dja2yeO+ppKhde9r1SbW2zvhy7nTxjK65MU+lXe47jCBlHxp3rZGzI1bgThOXuJ0IbvPz+m94mH/6LT5U6dxo31KkFahnPb1gwMj7cxJTx5aU5mYskfkGWo6etdP9IQ11zm+fh05+5NzJOP1nqXG+SV27gdL8PaqK9kXGSjLUkMw5gG3I1ri4sdz8R2uBl9yfvKd/89k2lzh0tll29JzdhjoxmzybjcT2zU1bmljZ1Vf3McWyeh8941j5y4WW3lmprm/Xl2O7nrDJthIz3qz3HtT0yjow718nYkKtxJ0iV5RmLCOSLukGw6AkbVeJXdp+ueTn/0ltk1yfuUfq86RQFc0pJMh983FSVOVm8Sf2VTbVejX6b01qyN2/GN4J2P0Jelokmt1dPU7ngO7eUbu8m60BZYQhZUTszTSWMtkfGkXHnOpmu5aooAdZZ1qh05eftRoWPH9mMVifPhjZrEo9wFgmzuZX+rJ9JHclX8rSN7Chp9DSO4bpNSwvGEzh0Kd0k0a55ecMf/LG86/1/Ufq8SaPCp7IRqHM+sm835yFxJs4wUJ0BZBwZLy0VbZ9wXctV078nEo1ojq0eiaw3kjjyJ8wLBd3Qm0TGC+TZuJFvopgnZYiI+Tk6zOjFQCgy/q3Lb5OtttpGvvejfyh93hgtxMeSEWj6HKW86tJA7IgdDDTPADKOjJeWirZPRP9lXElw+s/72dHlkhYSbR7L72L0DGgt+KPvCxvz8h1fBJg35ani8nKfzC02RD15BrWxLJ0vnMp4PG1htC7xdIfmE1YRe03yov5JuOgYetn+BxwsH/nLz0zcRm/Lezft33ac1dNUzr/0ZtqcvtIKA0xT6UcemZankHESjJUEMwnMJuVq0nHaWjei200+iUKVlUwbGTlSvGDCSLaefmLumZf1aN1IGZk9ZCFXh6zgqznH8YVAWzE2y22CF9XhzW34A9lpl0fLpdfcVXhOvHruDXLk7/5h4TqzPnzuV+f5rGc/t/TNujDQLwZstic3cIbBEjKOjDsnF03Ilc3kaWqr+jw6Mh6PYKcjzfk99Pd0pDueUpIdcS+UaLWrFulpN+4Nn7JRWI55A+DIBUA6Mq5rmi3DHxlXEv7633uzrFq1WlatWiWHvuw1I+fDhZd/T5534IvkyN9508g6m5xx7G466b32RsZhrRvWiuKMjNuLfVF7tLUMGUfGnROM/sh4+lSK7PzsWWU8Vl0l89H+0Qh70ZQQtSydFqNkXE0zMWVfjVyb37VEq/eRaSpK0g0Zz456R3vkRsazFwkSPY3D7ZFxU8LXrl0XxWv16jWZUfFTv3GZvO533iRbb7MtU1MCzpPqaSrnXXKjc3myLSmgXLfkj2kqbrVHW+cHMh5wJ9MWVHXL7Y+Ma+WNpTwr5Hrd9PdExnObZkej1cpU/pV4RyPyxpzv/DzwWM5zIp3cHDoc/Vbfc1NSouNklqUj4XEV0+91WZhl/7K8vPRlr5HNNlslWsJ1XHba+VHy8lceKXvtvZ+sWbs2+nP3H/rIJ+TO+3+NiJEnYQAGYAAGWmMAGQeu1uCaRaSKtikrV0Vl2FyWc2Y1UUUWN4wfmR7dPrtEy/jICHZOtJORbz1NJSomFeO4VFUX8+kuufWJjMd1zoy4J9VS+wxH6DcsivpLjZk/m64uCoay3kU7lOXlPR9ckB12fKSs23zzaERcy/jjHr+bfPbEM+SsC6+X79/7K+fOiy5iyTHCGIWjnWlnGHCLAWQcGXdOOsrKlWtJJR6hNqaNRNNLjO8l5VzLeOLCww+jI+PDFaaMb1Q3fMbirJ+2khmhz80HV8dKR8yNC4ho2sqF0UVFdgqMEnPzt0k8xcVhGde8HP/XX5BHPHLnRMq33nobWTz7CufOB11f3u10nuppKude/F24oK+0wgDTVOyc913nW2ScBGMlwUwC3X8ZHwqpHj0eDHJ/nbLESPlw/rd+VKAp5DPJ+HCHzJQVY4qJlu90vRLr4aj4/EIq2qbgJ5WIR8gzcq/WGYI/qZ2bWleXFy3las7405+5j3PnQ1Nxopxqnfrez3menHPRRrigr7TCADdwVjtvfct3yDgJxkqCmXSi1JWrSWV3sS5x1dofzCklxtQQQ/L1FIt4tPr7yci1EmRzWksyhUXLcnSBYJavK5u/UEiPm5XunIhHo//pzaV62y7i3RQvx//15+WZz95X7nv4P5w7J7qII8co7vT33vcAOedbyzBBX2mFAWS8+LzsW75CxkkwVhLMpBOpKbmadIw212mt5b2bJOo7L22ySNn1GVRPUzkbGXeunwiFbaap1D+HfWAFGUfGnUuyvssVEp5GoIsk6DsvXcSIY4TRodPOtDMM+MkAMo6MI+Mw4BwDZToUZNzPzqdMG7MtbQwDMNBnBpBxRMw5EUOuSLplki68wEsZXspuq56mctYF1zuXJ8v+Drb38zxhmoqf7Vb2fEPGkXHnOhnkKozkUzZZjdseXuBlHBtNLH/Ofs+XbyDjzvUTTbStD2VwA2cY+Q0ZR8adS7LIVRjJp6mOEF7gpSmWisrZd7+D5BsXXOdcniyqK8v6dy4g4/1r06LzFBlHxp3rZJCrMJJPUUKqsgxe4KUKN7Puo56mcub5yPis8WK7Zs9Hpqk0G09X+UTGkXFkHAacY6BMwkTGw+isyjDBtjABAzDgEwPIOCLmnIghVyTRMkkUXuClDC9sCy8wAAOuMYCMI+PIOAw4x0CZRImM07GW4aXstuppKmecd43X50jZ38z27pxTTFNxpy3aPC+QcUTMuU4GuQoj+TSV2OAFXppiqaic/Q84WE4/72rn8mRRXVnWv3OBGzj716ZF5ykyjow718k0IVd33v9r+dBxn3DutxWdhCyrl2yb4IU2qNcGfY7f/gci431uX9d/GzIeRm5CxpFx54S1jlwpCT/6zz4oq1evlrVr1zn321xP/D7Wrw4vPv5e6txt56yepnL6uVeRS+grrTDANJVuz3db+RUZJ8FYSTCTgK8iV1rC16xZK2vWrJF16zaXY44/wbnfNul3s65a0q3CC7GuFmviRtxgAAZgoHkGkHFk3DlhLSNXdwxHwpWEr16zRgaDQfTabvsdnftdJLDmE5iKaRleaIN22oC4ElcYgAEYqM4AMo6MOyetZeTq8CNeJ6tWrU4kXMv47nvsmSxT/8ysk4T6rLdheXzh4nscnjMYyC3r95j6UlxpDniv3mmEFjv1NJXFc66EHfpKKwwwTSWMXIWMk2CsJJhJHXoZGR8/Mr6Dc79r0m9mXfWEW4YX4lw9zqHG7oCDDpHFs68gn9BXWmGAGzjDyFnIOAnGSoKZ1LFXkau8lDNnPIwEpjiqwssk/lgXDjuztPWBBx0ipyHjzvUTs7RdH7ZBxsPIR8g4Mu5ckq0jV/pGTp6mEkYCU51tHV760FnzG9plXU3jOu2sy53Lk7R7u+3uSnyZphJGOyPjyLhznUwTcsVzxsNIYKrDbIIXVzpe6hEOt7Q1bQ0DMKAZQMaR8V7KuAac9/4nO9dlXPhvbAQ4P/t/ftLGtDEMTGcAGUfGkXEYcI6BMskbGR/rus6vKNPOtrZVT1M55czveH2O2Iodx50uYdNixDSV+jGcFmMX1iPjiJhznYzrcuXCiUsd0gTtOi9ZI16WhcFAFjZml8707aFFmRssyLKx8fK8ejxlwbJ5cytjh+FHtd/c0qbRFVJcv01LczKYUmZBYemigrqrlT5wfNDBhyLj9JPWWOUGTj/yRN1choyTZKwlmXHwui5X4+rNcjtJ03VeUiMVieW5ooxHojwniw/pEjfJ4oY5mdtglqeWmd/1ttl3ZHx2Vl9w8Evl5DMudS5Pkm9mb0OfY4WMh9HOyDgy7lwn47pc+ZzY+1h313lJNHjjggzmF6qPjEss88mIthpt3rAoy5lRazWybYyUq2MO/yrtYMOi6LHwWMYXo7pE65NR7xlHxseUq36rvuBQ5WbqatQr2mbDotzoQf5VT1NBxsMQIhfzI9NUwmAPGfegM3AxQbRZJyVXs77arAdl+5EE/ZBxJblqVLtAdqMpHOaId6Lvox8ioR9OQdGfh1IeibZapqU7U248Yq6nmsTCrI9p1sn8nB4+M00lKlePvmfLjbbT0m1uF32OLxLiC4H4soBzzI9zjHainWCgXQaQcWTcuZHxopNejbIVLWdZuwnCh/j6IONKUuNR4gLZzUhzKsCFn3JSG889j6erqOkr6XHiz4mYq8IMUY9kPBkNH24bfY/rl4ym61F19a63N8qJ6qi+DwXcFG21LjnOsN6LmVF82PXh/KKOcAoD7TOAjCPjXkguMt5+MvA14Tov40pE9Wj1mBskC8W7cKEWb/WeTkdR0qvEXL+rXeNRanWDp/kaHZ1OtjVkPH+DaVTWUMajz8nvEZHkAiEeJU+mpug6qP2ibdS0FTU1Jq23D8ypp6l87fRLvMiTPsSTOpbL5UxTKRcvX/lCxpFxLzoZNW/T15OMerebTF2X8WIp1tM8Co174kJV3sKSKfjxqPfc0nJG0E2BzheYjFgPV6TfC0buTalW29cYGVcTbMx6+XBuHHzI4fK1JWTch7bqYx25gbPd/sMVZpBxZBzJhQGvGXBdxrMiXCC70aixnr+d3brw28YFmVNPUTEfTajKUDeH6qkkasdcuZFwD0e0o8/JCLVZJ/NzenRToPUodzpFJp3CEm2nyx2OhkfbRZ/1iLg6Rvx7XekIJ9Xj4ENeJl9butjrc2TS72Od27KHjLvdPk2dP8g4IkYnAwNeMxCcjBdOdRmdIhKpdDSfW09T0TKsn8qSPk0lFfsZZFwVbJZrTlnR88SHU2OScjMyno6u+/I0la8uIuNNSQfllJNLpqmUi5evfCHjiJgXIsY0lTASUpVE6peMp6PNfILpKryzD9zAQP8YQMaRcS9knBs4+5d8mupQkHF/tb4pBiiH/AADMOAzA8g4Mo6Mw4AXDIxLtMg4Mj6OjSaWq6epnHTat7w+R5qIA2XYkV2mqdiJe9e8I+OImBedDNNUwkhIVRKg6zJe5Texjzu8H3LoK+Qrp17oRZ6EG3e4kZ+XEAAAIABJREFUaaotuIGzf21axAYyjozTycCA1wwg42F0VkUdWBfLkHH46oKzccdAxsPgDxlHxLwWsXEJjOVhJDDVzsh4OG1t47xW/yr35VMuIE/SV1phgGkqYeQ3ZJwEYyXBlO1UmaYSRkIqywUyDhdVmGEfuIEBGHCJAWQcGfdCxnmaColzXOJkZBw2xrHBctiAARjwgQFkHBlHxmHACwbGJVRknM52HBtNLFdPU/nSyed7fY40EQfKsHOeMU3FTty75h0ZR8S86GSYphJGQqqSAJFx2KjCzaz7HHr4q+XEr3/Tizw5629iO3/OGW7g9Ket6pxXyDgyTicDA14zgIyH0VnV6eim7XvM/Aljz4FDD3+NnPj188aun1Y26+GzDgPIeBj8IOOIGJ0MDHjNADIeRmdVR2gm7fvK1/6erF69Wp717OfKyWdcOnIuqH+V++LXkPFJMWRde+cg01Tai61L3CLjiNhI5+MSoLouTFMJIyHp9i7zjozDRhleirbdbvsdRd0kvsUWW46V8qL9WAZ7MAADTTCAjCPjXsg4T1Mh4Y1LeMg4bIxjY9blxxx/gmy++RaRkCPl8DQrN2wHK00xgIwj48g4DHjBwLikV0bGlWjxmh6D/Q98UXBxWrduc3nOYBD9ESnF1LTXKe89zuvzZtz5xHK3BJNpKm61R1vnBzKOiHnRoTBNJYyEVCXRlZHxKuWzT//ZO3Y4Mq5k/MRdd5Bb1u8x8aW2Qcb7z4UL5z43cIbBGTKOjHsh4y4kRergZlJExt1sF5/OFz1nfP/Vq5Fx+kSn+kRkPIz8hoyTeJxKPD514NTVjSSJjLvRDr6eD+bTVI4/8o3IOH2iU30i01TCyG/IOInHqcQzrkNnmkoYCWlc+09ajozDxiQ+ZlmnbuBU26mpJ0xTgadZmGEbOGmSAWQcGfdCxnmaColvXOJDxmFjHBtllyPjsFSWGbaHmSYYQMaRcWQcBrxgYFzCQ8bpDMexUXY5Mg5LZZlpe3umqYTBJDKOiHkhYkxTCSMhVenYkHHYqMJN0T7IOCwVcWFzGTdwhsEkMo6MeyHjNpMhx3Y7GSLjbrePT+ePDRkXh/7btDQnCxsdqlDDVfGJRV1XZDyM/IaMI+PIOAx4zQAyHkZnpeWkzXffZVzJ9GDDomwSkaxYL8vCcLny2+X5OVl8KDbdaJ+Jfwwr3bbIjc2yitcPEsFfnh/3B6eyx8jWPa3n3JL6Zdn/xpc5PJbxu9tkp62ymaYSRn5DxhExL0SMaSphJKQqHRoyDhtVuCnax5qMP7QocxkhXpDlrHPO/i0qK94/FWVDxjcuyGA+LV2Jb5HkxgfcJIsbsqKcr0h6jPya9LsS5vEj7vljqO/696efx9VzctnG7xbOkyLmWeYGF8g4Mu6FjPM0FTcShouJGxmHjaa4tCbjSpCNEdxUY+t+0jKaf0/LLTUyPnLRMGakW/+WjQuJ6BeNYMeCnpNx82JBHW944TBJxlX/MPal64KMe9HXN3Uu+1YOMo6Me3GCIuMI17jkiozDxjg2yi63JeOREBuj1akql/mkpHbcCLSW8dHyxkluvGVOlA051iWNjowbx8rIeHaEXR23SMaVtOuR+iguY0Rbj7T3fWScaSph5DdkHBn3QsaZphJGQiorT2p7ZBw2qnBTtI8tGc+PGmvRTIU4FVQtwePeE5lVI8xjRHYwSMV4kvDG+6fbStsyPhx5j2V8WRYGerpKPAdeS7r52yfL+DCCw6k4RW3u+jJu4AwjvyHjyLgXMu56wqR+9hImMm4v9n3j3o6MxyPaiWhGEm0IsOTWmyY66bM53SO3nTma3d3I+OhUkvzIeCTW88OpLcaouqr+2HpOvOjQx4zj6SOvyHgY+Q0ZR8aRcRjwmgFkPIzOqguRsiPjOVOuKt/DYpKR4omSmsp+6ZHxsaPtWnwH6fx3Q6jNCwAt11kZ3ySLS8sixj5mZMbKeLSRumBJR9GjRWqU3ZgvrpZ1wVDTx2Caip/tVpYDZBwR8yJBMU0ljIRUNoGp7ZFx2KjCTdE+Lsl4dqqKqaWTPhtzvGccGZ9U2si6tqepqAMOZXzqRcL8hdEc+fFTcYyLA3UBMb/sRV9XxCXL+p/jkHFk3IsExQ2c/U9GVTscZBw2qrKT38+OjKu50elItZLRgTFXWsqMlJujwbOMjOvtE8lWdVESa4wyT5B65c75Ee+MwBuj3GrEPi/O2ZHx4Z7GPmZZE0fG9e8wdyhYlm9vvpM7XGEAGUfGkXEY8IKBcUkTGadDHcdG2eV2ZFwkujEymf5hiHkklyXmjJvibH42JTURaGMUPZHx7IaZKS9jnvYyu4znf5c+Vm6KSWkZjy8gRv4loScyzjSVMPIbMo6IeSFiTFMJIyGVlSe1PTIOG1W4KdrHmoxrL635ruQ5cyOoKdCZkXJj5Ds6ph4Rz41e5+ZcF1VvVhnP75uZhmIep4yMR79pjOT3RMa5gTOM/IaMI+NeyHhRx8myMJLUtHZWMp5/PadgmdpmWlmsD5sp32U8L7x8z0bAx/MbGQ8jJyHjyDiCAgO9Y4B7DMLowJqWK2Q8K699+9Y0L12UxzSVMHIZMo6IeSFiTFMJIyE11bkh4/BShSVkvG/6nf09VZhgH3JJFwwg48i4FzKOXJEQyyRELt7gpQwveluvZXzCDZuRkubnYo+5aTOjr3retXpPbjA15pWbc70zO7r5Rbcz7+QH1xhAxpFxZBwGvGDAteRJffrXofsl48bTUJT7Ni7jufIt+XXmptSadfDxnGWaSv/yTBGHyDgi5oWIMdIZRkIqSlIso+27YsB7Gc+PXkdPU1FSnR3NXix45nfm2eLDZ5uPPC6wpgxX2T10GecGzjDyHzKOjHsh4111xhynH4mPi7d+tGPX56P3Mm4+yjBvvvlpKpmR9GVZMKacJM8Xj6Q8/xjEfMH577H8LyylU1syj1s0jhM93lDXOTMVJn1cYSzji8M/RhT/Jc38EWf93jVPTRwPGQ8jlyHjyDgyDgO9Y4B7DMLowJqQHbMMP2Q8N9KdHw3PfTdFeG5pWRbnF2WTstcJMq7lNpbyycdLytc7DUfVk5H2SLKHcq2OWSjjQ4HfOCzEqJuqQ7asgVQdsTfb2pfPTFMJI5ch44iYFyLGSGcYCampDhIZh5cqLPkh44n1Zj5M/HPxov+oj5LiWHznNsylfyBIrTckOSo4J87mwdKRc3Op/jwsfylS/mhhPLq9Kb4AMI6TjoznZFwXFf21UHM0fPx2xi5jP1Zhgn3IJV0wgIwj417IOHJFQiyTELl4g5cyvOhtvZNx/bQTEcnLePpdifiCLOemqWRGnPMyrkRcjbAb4mwa7iwybo5eT5dxVbq+YDBGwocyno6+I+OaVd77leOQcWQcGYcBLxig8+lX5+Nie3ol45Ewp3OrU/mOhXVEpDMyrraZk8WNal63KsMcGVfrFmTZEH1TxCNtnp80VSQ+fl6go++50fbogkDPGTcPYmyXiHy0Pi7bFH1zt2mfXWTOrNPlp18y8teE839dWH//6P4Hkrd71Hcj4z1qTPOk7ttnRjoRsb4xze9xj2lvZNyQVVNAI7kdDIzpJ8ZaU8ZH9h+OnisB13JcU8aTiwFVTiT8w3nq+rMeCY+Op46fXliY89lDk/GFx+0it6zfY+LrvL0eI8i4e/mjTk5HxpFxrq5hoHcMcPHWr46qTidXZl9vZDxx7HikOJpSoqaVaJFO1hsftIybcpysHo6G623U8poyvjA/nOoyyI6i6wsGdVPm4tJcWmd1gZDcfJo+wQUZHxVzZLx/+Q0ZR8R6J2JlOl+27V9SU23KPQb9bNe2z1dfZDwV2jGj4Ilkqw+psC9sHD/NI7qZ0hydzst4JPH6eeWpLGcOFX0Zf4zRbbtd0jY/dctX01QYGQ8zdyHjyLgXMs5IZ5gJqmrnhozDSxV2fJHxbhW27NGQ8UnsHTP/abnrgX8u7HeR8XDzFjKOjBcmhUnJxMY65CrcJFWFNy7e4KUKN8h4WfH2a/sqTDS9z9q160S93vX++REpR8bDzVvIODKOjMOAFww03SlSXrgd37i2tyHj4+rC8n7y+eH5T0UyvuWWW8nmm28RSfkPhiPlyHg/23yWcxkZR8S8EDFGOsNNUrMkMraBjyYYQMbhqAmOppWx7XY7JDermlJ+8dfPY854oE6GjAfa8NOSBevplHxmgIs3+K3CbxkZf07y5A99U2PT7ytkMFghgxUrZIWXr5WyYsWY18qVssJ4rVy5Utx7bSYrV5Z4bbaZrCx4bbbZZpJ/qfZMnxwTc7N27Vo58sCDkfFAnQwZD7Thq3RU7IPg+MIA9xjAahVWy8i42rbKMWbb57/kgV8MX5v+S37s5es/5cebJrx+/p/y4+Hr/p//p7j5+q3c//MSr5/9Vu4veN33s9+K+dpu+x0TGV+9Zo2sXr1G3vIn75cLTzoHGQ/UyZDxQBt+tg7BnQ6dkU532sIHdpBxeKnCqTsyTvtVaT8f9jl24W9k3brNJZXw98n37/1VdGHHnPFwuUfGkfEWR3eaO7GQq+Zi6UOHVbeOXLzBSxWGkHG4qcJNmX3Wrlsnq1atlrf8SSrhen9kPFz+kHFkHBmHAS8Y0B0W7+F2WG23PTIOW20z9sFjPi633/vLwpyLjIfLHzKOiBUmhbYTUtnyGekMN0mVZYXtYaUqA8g47FRlp4n9kPFw+UPGkXEvZLyJREcZ4SQ6Lt7Caesmz2tkHG6a5KlsWch4uPwh48g4Mg4DvWOAewzC7dTKCpC5PTIONyYPXX9GxsPlDxlHxLwQMUY6w01SVTpEZBxeqnCDjMNNFW6a2gcZD5c/ZBwZ90LGkatwk1SVjo6LN3ipwg0yDjdVuGlqH2Q8XP6QcWQcGYcBLxhoqsOjnHA7vGltj4zDxjRG2lyPjIfLHzKOiHkhYox0hpuk2uz8KBuuTAaQcXgweej6MzIeLn/IODLuhYx3nRQ5nt9JkYs3v9vP1vmHjMONLfbUcZHxcPlDxpFxZBwGescA9xiE26nVkSlkHG7q8FN3X2Q8XP6QcUTMCxFjpDPcJFWlg0PG4aUKN8g43FThpql9kPFw+UPGkXEvZBy5CjdJVenouHiDlyrcIONwU4WbpvZBxsPlDxlHxpFxGPCCgaY6PMoJt8Ob1vbIOGxMY6TN9ch4uPwh44iYFyLGSGe4SarNzo+y4cpkABmHB5OHrj8j4+Hyh4wj417IeNdJkeP5nRS5ePO7/Wydf8g43NhiTx0XGQ+XP2QcGUfGYaB3DHCPQbidWh2ZQsbhpg4/dfdFxsPlDxlHxLwQMUY6w01SVTo4ZBxeqnCDjMNNFW6a2gcZD5c/ZBwZ90LGkatwk1SVjo6LN3ipwg0yDjdVuGlqH2Q8XP6QcWQcGYcBLxhoqsOjnHA7vGltj4zDxjRG2lyPjIfLHzKOiHkhYox0hpuk2uz8KBuuTAaQcXgweej6MzIeLn/IODLuhYx3nRQ5nt9JkYs3v9vP1vmHjMONLfbUcZHxcPlDxpFxZBwGescA9xiE26nVkSlkHG7q8FN3X2Q8XP6QcUTMCxFjpDPcJFWlg0PG4aUKN8g43FThpql9kPFw+UPGkXEvZBy5CjdJVenouHiDlyrcIONwU4WbpvZBxsPlDxlHxpFxGPCCgaY6PMoJt8Ob1vbIOGxMY6TN9ch4uPwh44iYFyLGSGe4SarNzo+y4cpkABmHB5OHrj8j4+Hyh4wj417IeNdJkeP5nRS5ePO7/Wydf8g43NhiTx0XGQ+XP2QcGUfGYaB3DHCPQbidWh2ZQsbhpg4/dfdFxsPlDxlHxLwQMUY6w01SVTo4ZBxeqnCDjMNNFW6a2gcZD5c/ZBwZ90LGkatwk1SVjo6LN3ipwg0yDjdVuGlqH2Q8XP6QcWQcGYcBLxhoqsOjnHA7vGltj4zDxjRG2lyPjIfLHzKOiHkhYox0hpuk2uz8KBuuTAaQcXgweej6MzIeLn/IODLuhYx3nRQ5nt9JkYs3v9vP1vmHjMONLfbUcZHxcPlDxpFxZBwGescA9xiE26nVkSlkHG7q8FN3X2Q8XP6QcUTMCxFjpDPcJFWlg0PG4aUKN8g43FThpql9kPFw+UPGkXEvZBy5CjdJVenouHiDlyrcIONwU4WbpvZBxsPlDxlHxpFxGPCCgaY6PMoJt8Ob1vbIOGxMY6TN9ch4uPwh44iYFyLGSGe4SarNzo+y4cpkABmHB5OHrj8j4+Hyh4wj417IeNdJkeP5nRS5ePO7/Wydf8g43NhiTx0XGQ+XP2QcGUfGYaB3DHCPQbidWh2ZQsbhpg4/dfdFxsPlDxlHxLwQMUY6w01SVTo4ZBxeqnCDjMNNFW6a2gcZD5c/ZBwZ90LGkatwk1SVjo6LN3ipwg0yDjdVuGlqH2Q8XP6QcWQcGYcBLxhoqsOjnHA7vGltj4zDxjRG2lyPjIfLHzKOiHkhYox0hpuk2uz8KBuuTAaQcXgweej6MzIeLn/IODLuhYx3nRQ5nt9JkYs3v9vP1vmHjMONLfbUcZHxcPlDxpFxZBwGescA9xiE26nVkSkXZFz4z7sI1GHO3BcZDzdvIeOImBcixkhnuEnK7Kxm/YyMw8usrJjbIePjPHiTLM4vyiYR2bQ0JwsbReShRZmbXxaRZVkYLIj6lP1vkyxuGC7fuCDqnCx8RWVk95ztm1G+qsuGuH7j62PU3TiA+j1zS+qXpf+pZZm6zi/Iwpj6q31Nhup8RsbDzVvIODLeWCKpk4Sm7YtchZukprFRtJ6LN3gp4mLaMmdkXMllIn9FopuKY+OflDgPxXZ5fpCK6lC+IxlfMuQ3kfJ8TQxZ3riQlmNupo7VmYwb9THqUCTj8Wpze+OCw/i9et9pXM26HhkPN28h48g4Mg4DXjAwa4fGduF2aHXb3g0ZV+I3iEefhyPR1YXVsM5ZPxbJeObiwBjhnl8WJeyZUeTBnCyenx0JX5jPfs9sX0XGcyPtC+bFQWak3pDoaLlZ1zlZfCgeLc+PjBfLuLlv+pmRcfJN3byj9kfGETEvRIyRThJeEwmPMuBoEgNOyHit0eKscccj24vpFItEfNWobyr88dSOWE6lSMZ1sRsXZWFeTeEYbhtJ+vCzmrAyb5ZpjCyPGxnX5VZ6N8o3LxY2zMlcNG1GiXhaN/W7UulO902mpCSx0ZVJt8lMfWFk3AtnmHSeu7gOGUfGObFgoHcMcPGGdFfpcF2Q8XjqgyHQ+fnYOQHW6lj0Ho9aayE1R9yVaJribIjrGBmPpHV+eThnfFkWNizK8tJCJOfRHHJRZepjqdoYMjsiwuZ2RTWfZZlRvopJZs64Grk2p/fEvzeV8bj+eg68Wh5L+bBeuZH3uSWzPdJRcTXCz8g4uaZKrsnvg4wjYr0TsTzkfA8vWXKPQXht3sR57oqMJyPPw9HmzDSVsjJujPhqoY5FuYSMGzKtylDyvWlpIZrmoW7kXIhugEwFN1bpWICj37I0YZqKOXo9i4Mn2+jyBzJ+mspw42g0eyG6gIhu1UzqnJumEsVWS7wh++bUl6is+HZVFQtknFzTRO5BxpFxL2SckU4SXpmEh4zDSxle9LbOyLgh0NG0kcwob2KjUz/E01TSJ4VUlvHhkbR8Zg88nJdtTK+JjhPdgBqLbXY/Jbk1R8aTkeuhOCtBzoyMa6GOa6qOry4glufj4+p3tTZbN/OXmTJuLDdkXC/V/NR95wbOcPMWMo6MeyHjyFW4SapKB8fFG7xU4cYFGTfnbEeyF4lnVi61BE57j6apGGKffo9HlePpJcPHFOoRanW8/NNUEvk1p2ikQh3Ld/o9rlcqs+q40eh18oSYtJx06si0X5Nfn5YfPWZxjIyb4h0/jlFNrUkfxDiTjEcj5mmdVX+UvOaXG+tDkfFw8xYyjow3lkiqdH6z7oOMh5ukZmWE7WCkLgNOyHg0JUKLbSzNtaapJKPqo3PGdbkZmS6S8Wj+dzqtJdreENpI8rXMJ86sZVm9z8niRv1c8mQDyd5UKdF3fSFgbDXmoy5/eDERybiaKqNv4FS7DY/9kC4ijoF5ATBZxmPpNrdPn6+uy2zuvEPGm4tl3VzQ9f7IODLuhYwz0hlukuo6KXK8cFlzQ8b1SPVw9DUZ8R3KXzRKq2U9FcKiT0qS5+YXkmeWj0jlcIQ3vkFxWGahjMelx9KtR4XVaH0st5HUj9RrKMu6vDGjy2adxotx0a/LyXj0W9RvGE6biXYxPkfHj/+FIfod+bgah4gvTgbFz0BX5RgXImq3pnIGMt5cLJtqk67KQcaR8cYSSVfQcpxwE9asbc/FG4zMyoq5nTMybohhnY+RjOf+umSl8obTVExxjh/3l46Wx+Uq+TWeM75hURaH87SLRpTzI+OZKSWTKqrFXgu1qp8hyJmLBrVcXxCYZeoyzCkn0ef8lCAl/foCpOh9Tk64rZnzDRlvJo7mOe3LZ2QcGUfGYaB3DDCtKdxOrU7ni4ybtsrnWSNQhzlzX2Q83LyFjCNiXogYI53hJimzs5r1MzIOL7OyYm7XNxmfVSbZrl4ETIbqfEbGw81byDgy7oWMI1fhJqkqnRsXb/BShRsXZLxKvdmnH7wj4/1oxyrnIzKOjCPjMOAFA1USHPuE27lVaXtkHF6qcNPUPsh4uPwh44iYFyLGSGe4Saqpjo5yYGgaA8g4jExjpM31yHi4/CHjyLgXMt5mAqTs/iVALt7616ZdnKfIONx0wdm4YyDj4fKHjCPjyDgM9I4B7jEIt1MbJzqzLEfG4WYWTtraBhkPlz9kHBHzQsQY6Qw3SVXp+JBxeKnCTVMy/oEPf0w+dNwnvMitVeLEPu2cX8h4O3H1gVdkHBn3osNArsJNUlUSKRdv8FKFm7oyfuLXvyk77fwoUflq5crNvMitVeLEPu2cX8h4O3H1gVdkHBn3osNAxsNNUj4kUurYDz6ryviJXzsvkXCVq1asWCHHHH+CF7kVdt1hFxl3py26Pi+QcWTciw6Dkc5wk1TXSZHjhctaWRn/Yk7ClYir1+ZbbOlFXoV1t1hHxt1qjy7PD2QcGafTgIHeMcDFW7idWp0OtKyMqxFwLeBF7zvs+Mjk3Dr8iLlkW5bHFy3EIRsHJeNH7bSD3LJ+j4mv8/Z6jHx0/wMTtuowz75u5EpkHBHjhIaB3jGgxIhOxo1Oxqd2KCvj40fGt+icv/t//p9ivnTczWXqs7fLf/Yfcu/D/5HUX302X/p3mcv82P43cu9PfxP9LkbGw81ZyDgiliQ3ncxcfGekM9wkVYVHZBxeqnBTVsb1MfJSzpxx+NNslHlHxsPlBhlHxr2QceQq3CRVpjPT23LxBi+ahTLvVWVcH8O8kZOnqcCg5mLWd2Q8XGaQcWQcGYcBLxiYtUNju3A7tLptX1fG9fF5zjgMahbKvCPj4XKDjCNiXogYI53hJqkynRnbwkkdBpqS8Tp1YN9wGUbGw217ZBwZ90LG6aDCTVJV2p6LN3ipwg0yDjdVuGlqH2Q8XP6QcWQcGYeB3jHAPQbhdmp1xAgZh5s6/NTdFxkPlz9kHBHzQsQY6Qw3SVXp4JBxeKnCDTION1W4aWofZDxc/pBxZNwLGUeuwk1SVTo6Lt7gpQo3yDjcVOGmqX2Q8XD5Q8aRcWQcBrxgoKkOj3LC7fCmtT0yDhvTGGlzvZLxtwwGM734C5z9YhUZR8S8EDFGOvuVeNrs0CgbVqoygIzDTlV22trv66dfIi9cf7gX/XRbMQihXGQcGeckh4HeMcDFG1JVpQNHxuGmCjdt7oOMh8EkMo6I9U7E2kyMlO1HYuQeAz/aybXzCRmHG9eYvGrjffKpz51KP91zV0PGe97AriWWqvVhpJNOsgw7yDi8lOFFb4uMw41mgXdY6JIBZBwZ9+KKG7kiMZZJjFy8wUsZXvS2yDjcaBZ4h4UuGUDGkXFkHAa8YKDLxMixwuyIkfEw293l851pKmEwiYwjYl6IGCOdYSQklztF6tZ/BpHx/rexb+cxN3CGwSQyjox7IeO+JVDqazeBcvFmN/6+8u+ajAv/dRYBV5lFxsPIZcg4Mo6Mw0DvGOAegzA6sKYFqt8yvkkW5xdlU6K3y7IwGIg6V5LXBnP9cMOHFmVuMCeLDyU7Fn7YtDQnCxvjVerz3FJ6pGSHqKxBtE5tkxzXrMPI5+GxNy7IYH45KSr+sCwLRXXWW21cKKjHJlncMEjqqjdtmqWmymOaShi5DBlHxLwQMUY6w0hITXVgyDi8VGGpjIyvXLlS1q5bJ9ttv6M8ftcnyT77HiBHvPr18ifv/B/yN188Xa767n21c6sM5TUvrYWiq61y0ntGaJWML0iit+pYebFV24/IsSHvxv6RjM/HwqxlfHl+IAtLSuaH++TLj+qq5Nioh1qm6jIi3iJReUPhj3bN/J6CH57IeCzg436Luoiowgv7ELemGEDGkXEvkhByRdIrk/S4eIOXMrzobcvIuNr23of/XW6/95dy7U0PyDkXLctnvniGvPN9fyGHHTEnO+/yaHnik54i//2P3y3nXLSxUp4d0ctIjnPiOrLR5AXL8/H+0ci0Kbw5GVfiq/Lu3NJiNIKeuQAYSroeCVdHjGR8Yyy9cxvmJHqp0fExYp3WcnYZF4lHwheHdRsv13n5jn/z8nx2hN+Ue80A7+QOGwwg48h4pU6ia1iRcRJk18xxvPCYKyvj0xi56IrbRV0Y7rrb7nLAQYfISad9q1S+TYU10t3C6RXZbWb7Fon4yCi1MW3FlPRhkdE+eoR7zHot5xnRb1TGjd+Xu3gw1qQfk5FxvSid1qLqaF5gTGtLW+uZphJGHkLGkfFSnYOthMRIZxgJyRZfHBe+FANNy7jJ1ac/d5rs/uSnyWuPfKPcfs8vZ8q7WiGjdzUaPSLQw5HoovnZmZ3TkWJTQDObZL4YYj4U8Mx+w5HxZGR6fjkeGVfTVLSwR+9zsrjRmKai181/aXS+ul6jprWzAAASZUlEQVRX9D5/YXQhosqOhV/9nnSUOz/infwULeP5+uaPMb88U3uY7dnVZ27gDCM3IePIuLNJqKtkx3H6l+y4eOtfm3ZxnrYp47r+b3nb++SJuz9FvnX5bVNzbyKVEsu0HnnOL8+Icrpy9JOWUzXdIy+kw++ZY0yT2Pyc8Wg+d1x2UidjZLxYmtVvy029MfYxf4QazY7qp9aPqf/AvNl0WP+kLhLPOze/6/J1+7j2joyHkcuQcWR8aofgWnKiPmEkpzrtzLQmGKnCTxcyrur1l///ibLTzo+S71z3w4n5V4tifCNnTliTlSU+JDIuIubnqAgl0eloc7Qot405x1qiC4S0TrEoD0V8Q/yklEh6DbEulnG1T1pOdFxjH/PXJTJuLowEO1dv42JD1UHtlx2xN29CjZ/uUoWXLvZhmkoYuQwZR8YndgZdJJtZjsFIZxgJaRYWZtkGGYeXWTjJb9OVjKvjfuQvPyN77f3ciflXO2ckkwXztPX6md+Hcr1paSF6VGEq12NG3suOjM/HjxJU9VUSHJU/XKbqWCjjSrzz02+myLgqd5pcRzHJXEzkpT87Ip9nge/kkC4ZQMaR8YmdQZcwTjoWckVinMRHfh0Xb/CSZ2KW713KuKrPaze8MXoU4ri6aclW8lk0tSIenR63Tu9tvI+ZtqHya2Z6it4lI7P5RwtmZdYctdYyropJhb9Yxgt/2xQZ19XT74WSr1aa9Vdz1zfEEr8wfOqL+ZvHtQHLySVdMICMI+PIOAx4wUAXCZFjhN3xdi3j19/6E1mxYoXceMemwnMwls0xo9bRynhdsahrVU3f88Icjy4vyOJwGsdIOSVHxvOj1fEzxtMpKHlpjka4i0b8i2Q8qUtanv5l+XL18oyMDxeqGCT1NEbkXT33maYSRk5CxhGxwk7AtcTESGcYCck17qhPWNx1LeOKrzf8wdHy3j//q8I8nEhlox/ied2jT2aJnxWuRDWRcnNkeaQO2ZHxkdW5UXG13pTmsSKuNhyRcfNYw/qPvYFT1f/7maevRMcabp/8Nn2c4b8KuHqucwNnGDkIGUfGCzsBVxMT9QojMdVtZy7e4KQKQzZk/PTzrpZn7rVvYR4uElyWtROBKrx0sQ8yHkYuQ8aR8cJOoIskwzHCSDI22lmN7tk4Lsf0m2kbMq6Y2WqrbeSWH/z9CLPtaCelFkXA1XOXaSp+55RZuULGkfGRDmBWeLrcjpHOMBJSU0wh4/BShSVbMr7/gQfLqd+4bCQXF0mj/WXmlBH7tWmqBlV4YR/yTFMMIOPI+EgH0BRcTZaDXJH0yvDExRu8lOFFb2tLxl//hjfLRz/55ZFc3JRoZssxb/rMiXVmjnj6p+P1U1tUHh77Mm6GTI+n5nfnnwGerh3/KZ4Xbj7tZPy2zazRDPBO7rDBADKOjI90ADZAnHZMZJwEOY0R1sNIXQZsyfjRf/ZBed//+OhILm5GM4tLiZ4qEj3JxJBuQ8bVTY+pDCtpnyDV6obLQhlXx1ZiPfoElEyt1P6TRD9ZN6EOmQLLf6nLTlv7M00ljLyGjCPjIx1AW0mlTrmMdIaRkOowwr4wUpcBWzL+jvcdJ+94z0dGcnF5pay4h5bw/HtSXDyaPnZUXMnyWBmPn/c9KHqEoS4///QU9RjDSdvr/Rp8r8tOW/tzA2cYeQ0ZR8ZHOoC2kgrlhpFUXGhnLt5grQqHtmT87e85Vt75vuNGcnGDrpkWFY1Cjxmp1jKebj38VGdkXD8yccKo9lDGzUcQFol/5rGEI3Wst6AKL13sg4yHkcuQcWR8pAPoIsFwjDASjK12ZloTfFVhz5aM/9Hb3isfPObjI7m4nl5O2judyz1RgJPR7joj40ORX5ow2m2OjKvPyXEn/YZm11XhpYt9mKYSRi5DxpHxkQ6giwRT9hiMdIaRkMpyMW57ZBxexrExabktGd/we13ewJmV2OzccHOdMZdcaoyMqyknkVxPKCOR8ew25l8MNWvWxudJXLCOfNI2A8g4Mu6FjCNXJMMyyZCLN3gpw4ve1paMH3TwofLVxYtGcnEb0hmXmd5U2e7IuJJr40bQcXPBtYyr9+RmzdEnt4Q4TUWzyXu/cxoyjoyPdAAunvTIeL8TkYvMUafwmLMl44957BPkiuV7RnJxazJuTAWZbWS8Wk2iJ7ZkppxkR76TUsfMVWdkXIRpKmHkIWQcGR/pAFyUEEY6w0hILrJHncJhz4aM33TXL2T77XcszMOJrDb8QUmuHmWeZWRcb5/IsRrhViPYxhNPRqQ+GuUuuFG0YHlcbvxs8ajcsaPjE24CrRkjV89zbuAMI/8g48h4YSfgamKiXmEkprrtzMUbnFRhyIaMn/D5RTns5a8tzMM1/XLs7qY4m5+zOwznjBuj6ImMZzbMTnmJnk0eyfoEcY7Wa1FP988UK/FTWNJnnefXNvu9Ci9d7IOMh5HLkHFkvLAT6CLJcIwwkoyNdmZaE2xV4c6GjB/+itfJxz71lcI83Kxu6tKU/KainJdx9T0ZnTZGvqO99Yh4buRaj7JH2xSMfOsjZ961kI+ZoqK2LZb/TCmNfanCSxf7ME0ljFyGjCPjhZ1AF0mmzDEY6QwjIZVhYtK2yDi8TOJj3LquZVyJ1lZbbS0/ePBfCvNwY6ZJQVMjMI4JlpNLumAAGUfGCzuBLuArcwzkioRYhhcu3uClDC96265lfMPv/qH82buPGZuDpxokGzQWAc0A7+QOGwwg48j42I7ABpDjjomMkyDHscFy2GiKgS5l/NOfO01232NPuf9nv/UiBzcVY8opd74yTaVcvHzlCxlHxr3oCBjpDCMh+ZpIqXc/+GxKxj/52VNku+13kLf8yfsL8+tXTr1QVq5cKWeef23henjqB09NtCM3cIbBAjKOjNMZwEDvGODiLYwOrAnZMcuoK+NKwp+w2+6yzTbbyapVq+TSa+4aObc+eMxfy1Zbb1P4R37MuvAZhhUDyHgYHCDjiNhIZ0EnEMbJ3+d2ZloTDFfhu6qMawnfdtvtkyeRHPGq1ye59fpbfyLHHH+C7PGUp8tLDntV4R/4qVJf9uk/50xT6X8bq/MYGUfGkw7D5cTOSGcYCakpBpFxeKnCUlkZv/bmB2W77XcUU8IVe2oKipLuF64/TB73+N3kEY/cWY783TfJaWdf4UW+rRI79uGcg4HqDCDjyLgXnQNyVf0kDzFBcvEGL1W4LyvjF11xu+yz7wGydu26ZERc5aq16zaXP/7TD8hJp10kl99wtxc5tkq82IfzDAaaYQAZR8a96CiQ8WZOeBIncYSB8QyUlXEdSyXlh718LiPlBxx0iBe5Vf8G3sdzYTM2TFNxs12aZgIZR8a96DAY6QwjITWd4CgPbsowUFXG9TEiKT8ilvK1a9fKyWd824v8quvPu3vnCzdwutcmbZwnyDgyTmcBA71jgIu3MDqwpjvFujKu63PRFbfJ05+5t3zuy2f17tzSv5H3bs4xZLybONvmGRlHxOgsYKB3DDCtKYwOrOkOtCkZb7pelBcuz0xTCaPtkXFEzAsRY6QzjITUlHQg4/BShSVkHG6qcMM+cFOXAWQcGfdCxpErkl2ZZMfFG7yU4UVvi4zDjWaBd1jokgFkHBlHxmHACwa6TIwcK8yOGBkPs91dPt+ZphIGk8g4IuaFiDHSGUZCcrlTpG79ZxAZ738b+3YecwNnGEwi48i4FzLuWwKlvnYTKBdvduPvK/9Kxt8yGMz0Utv6+juptz/nBzLuT1vVOa+QcWScDgUGescA9xiE0YHV6fxm3fdtb/9zee+H/qp358isv5/t7J5LTFOxG/+u+EfGETEvOhlGOsNISE0lPmQcXppi6ai3vkc+9JFPeJEnm/rNlMP5AwPdMoCMI+NedDLIVbeJwfdEzMUbvDTF8Ls/cLx85C8/40WebOo3Uw7nDwx0ywAyjox70ckg490mBhIx8YYBGIAB+wwwTcV+G3RxHiDjyLgXMs5IZxgJqYukxzFgCQZgwBcGuIEzDFaRcWTcCxn3JXFSTzcSJxdvbrRDH86HP33Xh+WELyyRJ+krrTCAjIeRy5BxEoyVBNOHTprf4G6SZFqTu23j23lz+BGvk8+fdDZ5kr7SCgNMUwkjlyHjJBgrCaZsh8xIZxgJqSwX47ZHxuFlHBtllx9y6Cvky6dc6EWeLPvb2J7zBAbcYAAZR8a96GSQKzcShi+Jm4s3eGmK1Xe9f15OPuNSL/JkU7+Zcjh/YKBbBpBxZNyLTgYZ7zYxkIiJNwzAAAzYZ4BpKvbboIvzABlHxr2QcUY6w0hIXSQ9jgFLMAADvjDADZxhsIqMI+NeyLgviZN6upE4uXhzox36cD782buPkQu+cwt5kr7SCgPIeBi5DBknwVhJMH3opPkN7iZJpjW52za+nTdP2fOZcslVd5An6SutMMA0lTByGTJOgrGSYMp2yIx0hpGQynIxbntkHF7GsVF2+W5PerJcccM9XuTJsr+N7TlPYMANBpBxZNyLTga5ciNh+JK4uXiDl6ZYVU9TufbmB73Ik039Zsrh/IGBbhlAxpFxLzoZZLzbxEAiJt4wAAMwYJ8BpqnYb4MuzgNkHBn3QsYZ6QwjIXWR9DgGLMEADPjCADdwhsEqMo6MeyHjviRO6ulG4nz5KzfANbmtEQbe/p5j5c77f91IWeQHN/KDT+2AjIfBDDJOh0UnAwO9Y4BpTWF0YF1I1Zo1a+Tun/5b786RLmLHMeqfh0xTqR9DHzhExhExOhkY6B0DjIyH0YF10ckyRQ6WuuCMY4TNGTKOiPVOxEhqYSc12p/2hwEYgAEY8IkBZBwZR8ZhAAZgAAZgAAZgAAYsMYCMWwq8T1ds1JURBhiAARiAARiAARhohwFkHBnnShgGYAAGYAAGYAAGYMASA8i4pcBzddnO1SVxJa4wAAMwAAMwAAM+MYCMI+NcCcMADMAADMAADMAADFhiABm3FHifrtioKyMMMAADMAADMAADMNAOA8g4Ms6VMAzAAAzAAAzAAAzAgCUGkHFLgefqsp2rS+JKXGEABmAABmAABnxiABlHxrkShgEYgAEYgAEYgAEYsMQAMm4p8D5dsVFXRhhgAAZgAAZgAAZgoB0GkHFknCthGIABGIABGIABGIABSwwg45YCz9VlO1eXxJW4wgAMwAAMwAAM+MQAMo6McyUMAzAAAzAAAzAAAzBgiQFk3FLgfbpio66MMMAADMAADMAADMBAOwwg48g4V8IwAAMwAAMwAAMwAAOWGEDGLQWeq8t2ri6JK3GFARiAARiAARjwiQFkHBnnShgGYAAGYAAGYAAGYMASA8i4pcD7dMVGXRlhgAEYgAEYgAEYgIF2GEDGkXGuhGEABmAABmAABmAABiwxgIxbCjxXl+1cXRJX4goDMAADMAADMOATA8g4Ms6VMAzAAAzAAAzAAAzAgCUGkHFLgffpio26MsIAAzAAAzAAAzAAA+0wgIwj41wJwwAMwAAMwAAMwAAMWGIAGbcUeK4u27m6JK7EFQZgAAZgAAZgwCcGkHFknCthGIABGIABGIABGIABSwwg45YC79MVG3VlhAEGYAAGYAAGYAAG2mEAGUfGuRKGARiAARiAARiAARiwxAAybinwXF22c3VJXIkrDMAADMAADMCATwx4K+Oq4ryIAQzAAAzAAAzAAAzAgO8MSEv/DVoql2KJABEgAkSACBABIkAEiAARmBIBZHxKgFhNBIgAESACRIAIEAEiQATaigAy3lZkKZcIEAEiQASIABEgAkSACEyJADI+JUCsJgJEgAgQASJABIgAESACbUUAGW8rspRLBIgAESACRIAIEAEiQASmRAAZnxIgVhMBIkAEiAARIAJEgAgQgbYigIy3FVnKJQJEgAgQASJABIgAESACUyKAjE8JEKuJABEgAkSACBABIkAEiEBbEUDG24os5RIBIkAEiAARIAJEgAgQgSkRQManBIjVRIAIEAEiQASIABEgAkSgrQgg421FlnKJABEgAkSACBABIkAEiMCUCCDjUwLEaiJABIgAESACRIAIEAEi0FYEkPG2Iku5RIAIEAEiQASIABEgAkRgSgSQ8SkBYjURIAJEgAgQASJABIgAEWgrAsh4W5GlXCJABIgAESACRIAIEAEiMCUCyPiUALGaCBABIkAEiAARIAJEgAi0FQFkvK3IUi4RIAJEgAgQASJABIgAEZgSAWR8SoBYTQSIABEgAkSACBABIkAE2ooAMt5WZCmXCBABIkAEiAARIAJEgAhMiQAyPiVArCYCRIAIEAEiQASIABEgAm1F4P8B+HqREMENjngAAAAASUVORK5CYII=;" vertex="1" parent="1">
          <mxGeometry x="230" y="129" width="739" height="500" as="geometry" />
        </mxCell>
      </root>
    </mxGraphModel>
  </diagram>
</mxfile>
